Coordinates
version=1
nRows=26
nColumns=22
inDegrees=yes

Units are S.I. units (second, meters, Newtons, ...)
If the header above contains a line with 'inDegrees', this indicates whether rotational values are in degrees (yes) or radians (no).

endheader
time	pelvis_tilt	pelvis_list	pelvis_rotation	pelvis_tx	pelvis_ty	pelvis_tz	hip_flexion_r	hip_adduction_r	hip_rotation_r	knee_angle_r	ankle_angle_r	subtalar_angle_r	hip_flexion_l	hip_adduction_l	hip_rotation_l	knee_angle_l	ankle_angle_l	subtalar_angle_l	lumbar_extension	lumbar_bending	lumbar_rotation
      0.01000000	      2.59558367	     -1.25495830	      1.80050121	     -1.75262915	      1.08282370	     -0.32161427	     -2.36866761	      2.03666184	     -0.98993297	    -10.95101159	     10.98440233	     -2.30570435	     -1.37125037	     -1.81896917	     -1.48200684	    -14.35290747	     13.45804140	     -0.74417704	     -4.48241015	     -0.75744891	     -6.27329601
      0.02000000	      2.60030985	     -1.25004743	      1.83214885	     -1.75246111	      1.08281150	     -0.32176517	     -2.37887226	      2.02974202	     -0.98363561	    -10.96630084	     10.98423581	     -2.30684614	     -1.38177650	     -1.81204187	     -1.48458935	    -14.35448889	     13.45871331	     -0.74350710	     -4.46171254	     -0.73997999	     -6.26087979
      0.03000000	      2.61753569	     -1.22908756	      1.88457232	     -1.75224867	      1.08281409	     -0.32197072	     -2.40075922	      2.00448121	     -1.02682656	    -10.99254606	     11.01975049	     -2.32997620	     -1.43295498	     -1.78167427	     -1.41132052	    -14.30753145	     13.46853036	     -0.73153094	     -4.45203148	     -0.73966717	     -6.23217377
      0.04000000	      2.63587204	     -1.19687537	      1.95216150	     -1.75201180	      1.08281739	     -0.32222168	     -2.43610963	      1.96645092	     -1.08240790	    -10.99986289	     11.04486613	     -2.35020358	     -1.47567798	     -1.74058010	     -1.34949207	    -14.27798867	     13.46028377	     -0.72573188	     -4.44068357	     -0.74731451	     -6.22280776
      0.05000000	      2.65010184	     -1.16835033	      2.02457343	     -1.75177701	      1.08281397	     -0.32249924	     -2.46735991	      1.93148699	     -1.13661351	    -11.00695483	     11.06823991	     -2.36674044	     -1.51330222	     -1.70243214	     -1.28382331	    -14.24824735	     13.45793093	     -0.72598808	     -4.42662228	     -0.74593814	     -6.21129305
      0.06000000	      2.66189442	     -1.13876181	      2.10626160	     -1.75153891	      1.08280385	     -0.32280327	     -2.49946235	      1.89479760	     -1.20253332	    -11.00886477	     11.09099704	     -2.38258058	     -1.54636818	     -1.66239215	     -1.20922240	    -14.22081462	     13.45640145	     -0.72851157	     -4.40984087	     -0.74383200	     -6.20499395
      0.07000000	      2.67107089	     -1.11057203	      2.19879000	     -1.75130637	      1.08278812	     -0.32313089	     -2.53191399	      1.85938337	     -1.27926139	    -11.00549899	     11.11346206	     -2.39759488	     -1.57363812	     -1.62386306	     -1.12542594	    -14.19629590	     13.45713556	     -0.73235567	     -4.39215621	     -0.73933585	     -6.20342276
      0.08000000	      2.67764115	     -1.08411768	      2.30100916	     -1.75108581	      1.08276758	     -0.32347670	     -2.56365862	      1.82566522	     -1.36584115	    -10.99805498	     11.13467078	     -2.41085020	     -1.59406572	     -1.58756941	     -1.03389816	    -14.17615359	     13.45920622	     -0.73712510	     -4.37418704	     -0.73219784	     -6.20738771
      0.09000000	      2.68115722	     -1.05946818	      2.41154358	     -1.75087659	      1.08274252	     -0.32384038	     -2.59333005	      1.79325992	     -1.46269989	    -10.98838366	     11.15510654	     -2.42183261	     -1.60793673	     -1.55286720	     -0.93343138	    -14.15918271	     13.46200891	     -0.74305785	     -4.35544294	     -0.72323672	     -6.21662208
      0.10000000	      2.68074474	     -1.03626350	      2.52826911	     -1.75067875	      1.08271348	     -0.32421090	     -2.61950613	      1.76273803	     -1.56943470	    -10.97694456	     11.17482275	     -2.43043461	     -1.61515790	     -1.51966161	     -0.82560735	    -14.14479307	     13.46439473	     -0.75063750	     -4.33484413	     -0.71449666	     -6.22896617
      0.11000000	      2.67588074	     -1.01441135	      2.64637524	     -1.75048886	      1.08267886	     -0.32458266	     -2.64047510	      1.73319191	     -1.68098130	    -10.96573993	     11.19321017	     -2.43708989	     -1.61655431	     -1.48766225	     -0.71526054	    -14.13132867	     13.46620478	     -0.75959613	     -4.31128923	     -0.70582299	     -6.24148467
      0.12000000	      2.66684899	     -0.99312309	      2.76497283	     -1.75030390	      1.08263970	     -0.32495012	     -2.65721807	      1.70416345	     -1.79643717	    -10.95419758	     11.21088591	     -2.44278714	     -1.61189711	     -1.45655059	     -0.60429424	    -14.12039519	     13.46531039	     -0.77012749	     -4.28539698	     -0.69953978	     -6.25441611
      0.13000000	      2.65424508	     -0.97222641	      2.87856809	     -1.75011983	      1.08259907	     -0.32530960	     -2.66886576	      1.67527231	     -1.90845303	    -10.94427998	     11.22734721	     -2.44822296	     -1.60595312	     -1.42525494	     -0.49619348	    -14.10584987	     13.46449182	     -0.78074510	     -4.25773646	     -0.69464713	     -6.26372489
      0.14000000	      2.64127111	     -0.95183478	      2.98425137	     -1.74992147	      1.08255912	     -0.32564768	     -2.68013384	      1.64745439	     -2.01009770	    -10.93556903	     11.24360595	     -2.45358437	     -1.60185559	     -1.39526214	     -0.39880451	    -14.09075469	     13.46125847	     -0.79039742	     -4.22954687	     -0.69292591	     -6.26744282
      0.15000000	      2.62900160	     -0.93090644	      3.07935600	     -1.74971344	      1.08252403	     -0.32596286	     -2.69160095	      1.61925721	     -2.10190915	    -10.92775218	     11.26002653	     -2.45908131	     -1.60398156	     -1.36491853	     -0.30925585	    -14.06805140	     13.45741432	     -0.79829321	     -4.20376380	     -0.69429606	     -6.26247002
      0.16000000	      2.62035291	     -0.90954302	      3.16126304	     -1.74948195	      1.08249476	     -0.32624495	     -2.70653597	      1.59125830	     -2.17872300	    -10.92208432	     11.27689295	     -2.46451042	     -1.61467696	     -1.33535446	     -0.23546353	    -14.04238347	     13.45038750	     -0.80485005	     -4.18044240	     -0.70005607	     -6.24911588
      0.17000000	      2.61328392	     -0.88879214	      3.22392538	     -1.74923678	      1.08247051	     -0.32649207	     -2.72192904	      1.56376013	     -2.23610415	    -10.91800404	     11.29226438	     -2.46957422	     -1.63464345	     -1.30680345	     -0.18190088	    -14.00826608	     13.44405577	     -0.80936335	     -4.16144136	     -0.70680702	     -6.22013556
      0.18000000	      2.60443468	     -0.87702977	      3.26567271	     -1.74896925	      1.08244164	     -0.32669535	     -2.73950566	      1.54647321	     -2.26946680	    -10.90447908	     11.30449601	     -2.47222260	     -1.65154281	     -1.28975832	     -0.16421032	    -13.98122126	     13.44298945	     -0.81057602	     -4.13704133	     -0.70572005	     -6.17030569
      0.19000000	      2.60643038	     -0.84154221	      3.30066263	     -1.74869482	      1.08243466	     -0.32687888	     -2.75667365	      1.50359081	     -2.30817366	    -10.91723442	     11.32508929	     -2.47991221	     -1.70269823	     -1.24544282	     -0.11865012	    -13.91657616	     13.42741787	     -0.81287465	     -4.13021639	     -0.73589719	     -6.12460131
      0.20000000	      2.61288805	     -0.81433132	      3.31699130	     -1.74837509	      1.08243399	     -0.32703217	     -2.78642489	      1.46982594	     -2.32514488	    -10.91652478	     11.34507097	     -2.48641830	     -1.76176505	     -1.21180718	     -0.10869562	    -13.85346505	     13.41501922	     -0.81593969	     -4.12271257	     -0.75793697	     -6.05942133
      0.21000000	      2.62709216	     -0.78497035	      3.31995289	     -1.74803298	      1.08244764	     -0.32716791	     -2.82374067	      1.43376859	     -2.32170956	    -10.91870921	     11.36514469	     -2.49212092	     -1.83762748	     -1.17582690	     -0.10982515	    -13.77939875	     13.40217719	     -0.81749574	     -4.12418887	     -0.78308313	     -5.98222349
      0.22000000	      2.64804669	     -0.75701546	      3.32085979	     -1.74765932	      1.08247234	     -0.32729325	     -2.87126684	      1.40097432	     -2.31181624	    -10.91823160	     11.38588306	     -2.49620230	     -1.92425574	     -1.14240481	     -0.11732030	    -13.70234199	     13.38901850	     -0.81753680	     -4.13002364	     -0.80864662	     -5.90466848
      0.23000000	      2.67059952	     -0.73127362	      3.32742161	     -1.74728570	      1.08250058	     -0.32743756	     -2.91972754	      1.36985107	     -2.30430157	    -10.91947213	     11.40515002	     -2.49813578	     -2.01209411	     -1.11090361	     -0.11789493	    -13.62467518	     13.37780437	     -0.81630873	     -4.13952606	     -0.83173562	     -5.83441500
      0.24000000	      2.69515811	     -0.70657189	      3.34342832	     -1.74691883	      1.08253361	     -0.32759820	     -2.96994661	      1.34027203	     -2.30448661	    -10.92145613	     11.42408716	     -2.49801020	     -2.09848757	     -1.08068871	     -0.11008799	    -13.55147951	     13.36512693	     -0.81445962	     -4.15394183	     -0.85446603	     -5.77681119
      0.25000000	      2.71757127	     -0.68517650	      3.36975710	     -1.74656807	      1.08256458	     -0.32777504	     -3.01716802	      1.31436885	     -2.31674934	    -10.92382670	     11.44021290	     -2.49606122	     -2.17641296	     -1.05414399	     -0.09157175	    -13.48600995	     13.35352678	     -0.81263822	     -4.16948500	     -0.87457660	     -5.73385082
      0.26000000	      2.71272202	     -0.68028701	      3.40476698	     -1.74623785	      1.08255431	     -0.32796157	     -3.03600397	      1.30524555	     -2.33405255	    -10.91957652	     11.44906290	     -2.49560953	     -2.20792427	     -1.04603037	     -0.08847820	    -13.44724930	     13.35511539	     -0.81198349	     -4.15463814	     -0.87772063	     -5.70168728
